%TF.GenerationSoftware,KiCad,Pcbnew,5.1.10-1.fc32*%
%TF.CreationDate,2021-08-01T16:38:55+02:00*%
%TF.ProjectId,lm324_therm_bar,6c6d3332-345f-4746-9865-726d5f626172,rev?*%
%TF.SameCoordinates,Original*%
%TF.FileFunction,Legend,Bot*%
%TF.FilePolarity,Positive*%
%FSLAX46Y46*%
G04 Gerber Fmt 4.6, Leading zero omitted, Abs format (unit mm)*
G04 Created by KiCad (PCBNEW 5.1.10-1.fc32) date 2021-08-01 16:38:55*
%MOMM*%
%LPD*%
G01*
G04 APERTURE LIST*
%ADD10C,0.150000*%
%ADD11C,0.010000*%
%ADD12C,0.120000*%
G04 APERTURE END LIST*
D10*
X80390952Y-42616428D02*
X79629047Y-42616428D01*
X76072952Y-44267428D02*
X75311047Y-44267428D01*
X75692000Y-44648380D02*
X75692000Y-43886476D01*
D11*
G36*
X62135959Y-47602671D02*
G01*
X61949631Y-47602786D01*
X61769659Y-47602972D01*
X61597008Y-47603225D01*
X61432649Y-47603543D01*
X61277549Y-47603920D01*
X61132676Y-47604354D01*
X60998998Y-47604839D01*
X60877483Y-47605373D01*
X60769100Y-47605952D01*
X60674816Y-47606571D01*
X60595600Y-47607227D01*
X60532420Y-47607916D01*
X60486244Y-47608635D01*
X60458040Y-47609378D01*
X60448769Y-47610122D01*
X60455631Y-47618167D01*
X60475505Y-47639164D01*
X60507321Y-47672030D01*
X60550009Y-47715679D01*
X60602500Y-47769029D01*
X60663724Y-47830994D01*
X60732610Y-47900490D01*
X60808090Y-47976433D01*
X60889093Y-48057739D01*
X60974550Y-48143323D01*
X60995453Y-48164228D01*
X61542137Y-48710845D01*
X61721409Y-48532403D01*
X61030441Y-47841223D01*
X63634941Y-47841223D01*
X61512517Y-49963647D01*
X60998005Y-49449206D01*
X60914179Y-49365491D01*
X60834398Y-49286007D01*
X60759781Y-49211858D01*
X60691446Y-49144146D01*
X60630513Y-49083973D01*
X60578100Y-49032443D01*
X60535325Y-48990657D01*
X60503308Y-48959720D01*
X60483167Y-48940732D01*
X60476072Y-48934765D01*
X60473620Y-48944164D01*
X60471510Y-48970193D01*
X60469886Y-49009601D01*
X60468894Y-49059136D01*
X60468651Y-49101318D01*
X60468651Y-49267870D01*
X60988119Y-49787267D01*
X61072300Y-49871371D01*
X61152381Y-49951252D01*
X61227254Y-50025813D01*
X61295812Y-50093956D01*
X61356947Y-50154587D01*
X61409554Y-50206607D01*
X61452525Y-50248921D01*
X61484752Y-50280433D01*
X61505129Y-50300045D01*
X61512536Y-50306664D01*
X61519957Y-50299745D01*
X61540748Y-50279442D01*
X61574225Y-50246435D01*
X61619705Y-50201407D01*
X61676505Y-50145037D01*
X61743941Y-50078006D01*
X61821330Y-50000997D01*
X61907988Y-49914688D01*
X62003232Y-49819762D01*
X62106379Y-49716899D01*
X62216744Y-49606780D01*
X62333646Y-49490086D01*
X62456400Y-49367498D01*
X62584323Y-49239697D01*
X62716731Y-49107364D01*
X62852942Y-48971179D01*
X62862031Y-48962090D01*
X62998456Y-48825624D01*
X63131075Y-48692890D01*
X63259204Y-48564575D01*
X63382165Y-48441363D01*
X63499275Y-48323939D01*
X63609853Y-48212987D01*
X63713218Y-48109193D01*
X63808690Y-48013242D01*
X63895586Y-47925818D01*
X63973226Y-47847607D01*
X64040930Y-47779293D01*
X64098014Y-47721561D01*
X64143800Y-47675096D01*
X64177604Y-47640583D01*
X64198748Y-47618707D01*
X64206548Y-47610153D01*
X64206577Y-47610075D01*
X64196797Y-47609315D01*
X64168103Y-47608577D01*
X64121462Y-47607864D01*
X64057843Y-47607180D01*
X63978214Y-47606529D01*
X63883543Y-47605915D01*
X63774798Y-47605341D01*
X63652948Y-47604812D01*
X63518959Y-47604330D01*
X63373802Y-47603901D01*
X63218443Y-47603528D01*
X63053851Y-47603214D01*
X62880993Y-47602964D01*
X62700839Y-47602781D01*
X62514356Y-47602669D01*
X62327673Y-47602632D01*
X62135959Y-47602671D01*
G37*
X62135959Y-47602671D02*
X61949631Y-47602786D01*
X61769659Y-47602972D01*
X61597008Y-47603225D01*
X61432649Y-47603543D01*
X61277549Y-47603920D01*
X61132676Y-47604354D01*
X60998998Y-47604839D01*
X60877483Y-47605373D01*
X60769100Y-47605952D01*
X60674816Y-47606571D01*
X60595600Y-47607227D01*
X60532420Y-47607916D01*
X60486244Y-47608635D01*
X60458040Y-47609378D01*
X60448769Y-47610122D01*
X60455631Y-47618167D01*
X60475505Y-47639164D01*
X60507321Y-47672030D01*
X60550009Y-47715679D01*
X60602500Y-47769029D01*
X60663724Y-47830994D01*
X60732610Y-47900490D01*
X60808090Y-47976433D01*
X60889093Y-48057739D01*
X60974550Y-48143323D01*
X60995453Y-48164228D01*
X61542137Y-48710845D01*
X61721409Y-48532403D01*
X61030441Y-47841223D01*
X63634941Y-47841223D01*
X61512517Y-49963647D01*
X60998005Y-49449206D01*
X60914179Y-49365491D01*
X60834398Y-49286007D01*
X60759781Y-49211858D01*
X60691446Y-49144146D01*
X60630513Y-49083973D01*
X60578100Y-49032443D01*
X60535325Y-48990657D01*
X60503308Y-48959720D01*
X60483167Y-48940732D01*
X60476072Y-48934765D01*
X60473620Y-48944164D01*
X60471510Y-48970193D01*
X60469886Y-49009601D01*
X60468894Y-49059136D01*
X60468651Y-49101318D01*
X60468651Y-49267870D01*
X60988119Y-49787267D01*
X61072300Y-49871371D01*
X61152381Y-49951252D01*
X61227254Y-50025813D01*
X61295812Y-50093956D01*
X61356947Y-50154587D01*
X61409554Y-50206607D01*
X61452525Y-50248921D01*
X61484752Y-50280433D01*
X61505129Y-50300045D01*
X61512536Y-50306664D01*
X61519957Y-50299745D01*
X61540748Y-50279442D01*
X61574225Y-50246435D01*
X61619705Y-50201407D01*
X61676505Y-50145037D01*
X61743941Y-50078006D01*
X61821330Y-50000997D01*
X61907988Y-49914688D01*
X62003232Y-49819762D01*
X62106379Y-49716899D01*
X62216744Y-49606780D01*
X62333646Y-49490086D01*
X62456400Y-49367498D01*
X62584323Y-49239697D01*
X62716731Y-49107364D01*
X62852942Y-48971179D01*
X62862031Y-48962090D01*
X62998456Y-48825624D01*
X63131075Y-48692890D01*
X63259204Y-48564575D01*
X63382165Y-48441363D01*
X63499275Y-48323939D01*
X63609853Y-48212987D01*
X63713218Y-48109193D01*
X63808690Y-48013242D01*
X63895586Y-47925818D01*
X63973226Y-47847607D01*
X64040930Y-47779293D01*
X64098014Y-47721561D01*
X64143800Y-47675096D01*
X64177604Y-47640583D01*
X64198748Y-47618707D01*
X64206548Y-47610153D01*
X64206577Y-47610075D01*
X64196797Y-47609315D01*
X64168103Y-47608577D01*
X64121462Y-47607864D01*
X64057843Y-47607180D01*
X63978214Y-47606529D01*
X63883543Y-47605915D01*
X63774798Y-47605341D01*
X63652948Y-47604812D01*
X63518959Y-47604330D01*
X63373802Y-47603901D01*
X63218443Y-47603528D01*
X63053851Y-47603214D01*
X62880993Y-47602964D01*
X62700839Y-47602781D01*
X62514356Y-47602669D01*
X62327673Y-47602632D01*
X62135959Y-47602671D01*
G36*
X60473620Y-48079272D02*
G01*
X60471510Y-48105301D01*
X60469886Y-48144709D01*
X60468894Y-48194244D01*
X60468651Y-48236424D01*
X60468651Y-48402975D01*
X61003030Y-48937285D01*
X61088435Y-49022615D01*
X61169751Y-49103737D01*
X61245888Y-49179569D01*
X61315755Y-49249031D01*
X61378260Y-49311042D01*
X61432311Y-49364520D01*
X61476818Y-49408384D01*
X61510690Y-49441554D01*
X61532835Y-49462948D01*
X61542162Y-49471486D01*
X61542372Y-49471595D01*
X61549955Y-49464720D01*
X61570614Y-49444736D01*
X61603382Y-49412607D01*
X61647287Y-49369294D01*
X61701360Y-49315761D01*
X61764632Y-49252970D01*
X61836132Y-49181884D01*
X61914892Y-49103466D01*
X61999941Y-49018678D01*
X62090310Y-48928483D01*
X62185029Y-48833844D01*
X62220831Y-48798045D01*
X62316877Y-48701916D01*
X62408831Y-48609734D01*
X62495731Y-48522473D01*
X62576613Y-48441106D01*
X62650515Y-48366607D01*
X62716473Y-48299951D01*
X62773524Y-48242112D01*
X62820704Y-48194063D01*
X62857051Y-48156777D01*
X62881601Y-48131230D01*
X62893391Y-48118395D01*
X62894326Y-48117067D01*
X62884928Y-48114612D01*
X62858899Y-48112499D01*
X62819494Y-48110874D01*
X62769963Y-48109881D01*
X62727846Y-48109638D01*
X62561365Y-48109638D01*
X61542309Y-49128550D01*
X61012902Y-48599211D01*
X60927850Y-48514266D01*
X60846832Y-48433537D01*
X60770950Y-48358111D01*
X60701308Y-48289075D01*
X60639007Y-48227515D01*
X60585149Y-48174519D01*
X60540838Y-48131174D01*
X60507175Y-48098567D01*
X60485263Y-48077784D01*
X60476203Y-48069913D01*
X60476073Y-48069873D01*
X60473620Y-48079272D01*
G37*
X60473620Y-48079272D02*
X60471510Y-48105301D01*
X60469886Y-48144709D01*
X60468894Y-48194244D01*
X60468651Y-48236424D01*
X60468651Y-48402975D01*
X61003030Y-48937285D01*
X61088435Y-49022615D01*
X61169751Y-49103737D01*
X61245888Y-49179569D01*
X61315755Y-49249031D01*
X61378260Y-49311042D01*
X61432311Y-49364520D01*
X61476818Y-49408384D01*
X61510690Y-49441554D01*
X61532835Y-49462948D01*
X61542162Y-49471486D01*
X61542372Y-49471595D01*
X61549955Y-49464720D01*
X61570614Y-49444736D01*
X61603382Y-49412607D01*
X61647287Y-49369294D01*
X61701360Y-49315761D01*
X61764632Y-49252970D01*
X61836132Y-49181884D01*
X61914892Y-49103466D01*
X61999941Y-49018678D01*
X62090310Y-48928483D01*
X62185029Y-48833844D01*
X62220831Y-48798045D01*
X62316877Y-48701916D01*
X62408831Y-48609734D01*
X62495731Y-48522473D01*
X62576613Y-48441106D01*
X62650515Y-48366607D01*
X62716473Y-48299951D01*
X62773524Y-48242112D01*
X62820704Y-48194063D01*
X62857051Y-48156777D01*
X62881601Y-48131230D01*
X62893391Y-48118395D01*
X62894326Y-48117067D01*
X62884928Y-48114612D01*
X62858899Y-48112499D01*
X62819494Y-48110874D01*
X62769963Y-48109881D01*
X62727846Y-48109638D01*
X62561365Y-48109638D01*
X61542309Y-49128550D01*
X61012902Y-48599211D01*
X60927850Y-48514266D01*
X60846832Y-48433537D01*
X60770950Y-48358111D01*
X60701308Y-48289075D01*
X60639007Y-48227515D01*
X60585149Y-48174519D01*
X60540838Y-48131174D01*
X60507175Y-48098567D01*
X60485263Y-48077784D01*
X60476203Y-48069913D01*
X60476073Y-48069873D01*
X60473620Y-48079272D01*
G36*
X56552946Y-47579598D02*
G01*
X56443964Y-47599687D01*
X56348417Y-47633092D01*
X56266800Y-47679481D01*
X56199610Y-47738525D01*
X56147344Y-47809892D01*
X56110498Y-47893252D01*
X56093845Y-47960233D01*
X56088264Y-47995125D01*
X56085265Y-48021549D01*
X56085434Y-48034220D01*
X56085626Y-48034506D01*
X56096525Y-48036154D01*
X56123832Y-48037919D01*
X56164074Y-48039639D01*
X56213779Y-48041157D01*
X56246833Y-48041907D01*
X56403753Y-48045020D01*
X56420792Y-47995105D01*
X56445919Y-47937406D01*
X56477858Y-47895213D01*
X56519857Y-47864473D01*
X56529484Y-47859474D01*
X56555426Y-47848244D01*
X56581684Y-47841263D01*
X56614156Y-47837598D01*
X56658740Y-47836314D01*
X56676048Y-47836253D01*
X56723726Y-47836795D01*
X56757844Y-47839209D01*
X56784715Y-47844679D01*
X56810650Y-47854389D01*
X56835109Y-47866077D01*
X56884413Y-47897289D01*
X56914500Y-47932349D01*
X56925787Y-47971968D01*
X56920407Y-48011486D01*
X56911239Y-48034715D01*
X56897366Y-48055287D01*
X56876892Y-48074093D01*
X56847923Y-48092024D01*
X56808562Y-48109973D01*
X56756916Y-48128832D01*
X56691088Y-48149493D01*
X56609184Y-48172848D01*
X56534619Y-48193054D01*
X56431361Y-48222959D01*
X56345496Y-48253331D01*
X56274553Y-48285492D01*
X56216062Y-48320767D01*
X56167552Y-48360480D01*
X56126552Y-48405955D01*
X56119156Y-48415696D01*
X56081217Y-48480185D01*
X56057234Y-48553308D01*
X56046519Y-48637750D01*
X56046344Y-48700032D01*
X56048698Y-48748671D01*
X56052553Y-48784240D01*
X56059479Y-48813554D01*
X56071049Y-48843424D01*
X56087245Y-48877461D01*
X56137753Y-48957999D01*
X56202816Y-49025235D01*
X56281766Y-49078653D01*
X56373936Y-49117740D01*
X56414356Y-49129246D01*
X56461286Y-49137681D01*
X56522300Y-49143980D01*
X56591704Y-49148005D01*
X56663801Y-49149618D01*
X56732895Y-49148681D01*
X56793288Y-49145056D01*
X56835109Y-49139456D01*
X56940652Y-49111363D01*
X57031160Y-49070696D01*
X57107468Y-49016857D01*
X57170413Y-48949246D01*
X57220829Y-48867265D01*
X57223793Y-48861217D01*
X57238142Y-48827606D01*
X57252637Y-48787163D01*
X57266015Y-48744405D01*
X57277016Y-48703853D01*
X57284377Y-48670025D01*
X57286836Y-48647440D01*
X57285286Y-48641002D01*
X57273534Y-48637828D01*
X57246237Y-48633676D01*
X57207683Y-48628953D01*
X57162159Y-48624069D01*
X57113954Y-48619430D01*
X57067358Y-48615444D01*
X57026657Y-48612520D01*
X56996141Y-48611065D01*
X56980098Y-48611487D01*
X56978950Y-48611863D01*
X56970029Y-48626077D01*
X56969317Y-48631770D01*
X56963847Y-48660541D01*
X56949498Y-48698739D01*
X56929359Y-48739912D01*
X56906520Y-48777611D01*
X56888216Y-48801110D01*
X56845245Y-48840058D01*
X56797636Y-48866693D01*
X56741207Y-48882543D01*
X56671776Y-48889135D01*
X56646225Y-48889539D01*
X56569591Y-48885326D01*
X56507673Y-48871831D01*
X56457102Y-48848036D01*
X56424187Y-48822440D01*
X56389708Y-48779403D01*
X56369846Y-48730937D01*
X56364549Y-48681020D01*
X56373765Y-48633633D01*
X56397441Y-48592754D01*
X56427570Y-48566905D01*
X56471865Y-48544737D01*
X56534878Y-48521498D01*
X56617036Y-48497040D01*
X56676048Y-48481631D01*
X56786578Y-48451758D01*
X56881916Y-48421365D01*
X56960207Y-48391074D01*
X56993285Y-48375708D01*
X57068124Y-48328332D01*
X57130771Y-48268464D01*
X57179775Y-48198817D01*
X57213683Y-48122105D01*
X57231044Y-48041042D01*
X57230405Y-47958343D01*
X57227348Y-47938198D01*
X57202243Y-47850730D01*
X57161046Y-47774432D01*
X57104390Y-47709723D01*
X57032911Y-47657019D01*
X56947240Y-47616742D01*
X56848013Y-47589308D01*
X56735862Y-47575137D01*
X56674865Y-47573155D01*
X56552946Y-47579598D01*
G37*
X56552946Y-47579598D02*
X56443964Y-47599687D01*
X56348417Y-47633092D01*
X56266800Y-47679481D01*
X56199610Y-47738525D01*
X56147344Y-47809892D01*
X56110498Y-47893252D01*
X56093845Y-47960233D01*
X56088264Y-47995125D01*
X56085265Y-48021549D01*
X56085434Y-48034220D01*
X56085626Y-48034506D01*
X56096525Y-48036154D01*
X56123832Y-48037919D01*
X56164074Y-48039639D01*
X56213779Y-48041157D01*
X56246833Y-48041907D01*
X56403753Y-48045020D01*
X56420792Y-47995105D01*
X56445919Y-47937406D01*
X56477858Y-47895213D01*
X56519857Y-47864473D01*
X56529484Y-47859474D01*
X56555426Y-47848244D01*
X56581684Y-47841263D01*
X56614156Y-47837598D01*
X56658740Y-47836314D01*
X56676048Y-47836253D01*
X56723726Y-47836795D01*
X56757844Y-47839209D01*
X56784715Y-47844679D01*
X56810650Y-47854389D01*
X56835109Y-47866077D01*
X56884413Y-47897289D01*
X56914500Y-47932349D01*
X56925787Y-47971968D01*
X56920407Y-48011486D01*
X56911239Y-48034715D01*
X56897366Y-48055287D01*
X56876892Y-48074093D01*
X56847923Y-48092024D01*
X56808562Y-48109973D01*
X56756916Y-48128832D01*
X56691088Y-48149493D01*
X56609184Y-48172848D01*
X56534619Y-48193054D01*
X56431361Y-48222959D01*
X56345496Y-48253331D01*
X56274553Y-48285492D01*
X56216062Y-48320767D01*
X56167552Y-48360480D01*
X56126552Y-48405955D01*
X56119156Y-48415696D01*
X56081217Y-48480185D01*
X56057234Y-48553308D01*
X56046519Y-48637750D01*
X56046344Y-48700032D01*
X56048698Y-48748671D01*
X56052553Y-48784240D01*
X56059479Y-48813554D01*
X56071049Y-48843424D01*
X56087245Y-48877461D01*
X56137753Y-48957999D01*
X56202816Y-49025235D01*
X56281766Y-49078653D01*
X56373936Y-49117740D01*
X56414356Y-49129246D01*
X56461286Y-49137681D01*
X56522300Y-49143980D01*
X56591704Y-49148005D01*
X56663801Y-49149618D01*
X56732895Y-49148681D01*
X56793288Y-49145056D01*
X56835109Y-49139456D01*
X56940652Y-49111363D01*
X57031160Y-49070696D01*
X57107468Y-49016857D01*
X57170413Y-48949246D01*
X57220829Y-48867265D01*
X57223793Y-48861217D01*
X57238142Y-48827606D01*
X57252637Y-48787163D01*
X57266015Y-48744405D01*
X57277016Y-48703853D01*
X57284377Y-48670025D01*
X57286836Y-48647440D01*
X57285286Y-48641002D01*
X57273534Y-48637828D01*
X57246237Y-48633676D01*
X57207683Y-48628953D01*
X57162159Y-48624069D01*
X57113954Y-48619430D01*
X57067358Y-48615444D01*
X57026657Y-48612520D01*
X56996141Y-48611065D01*
X56980098Y-48611487D01*
X56978950Y-48611863D01*
X56970029Y-48626077D01*
X56969317Y-48631770D01*
X56963847Y-48660541D01*
X56949498Y-48698739D01*
X56929359Y-48739912D01*
X56906520Y-48777611D01*
X56888216Y-48801110D01*
X56845245Y-48840058D01*
X56797636Y-48866693D01*
X56741207Y-48882543D01*
X56671776Y-48889135D01*
X56646225Y-48889539D01*
X56569591Y-48885326D01*
X56507673Y-48871831D01*
X56457102Y-48848036D01*
X56424187Y-48822440D01*
X56389708Y-48779403D01*
X56369846Y-48730937D01*
X56364549Y-48681020D01*
X56373765Y-48633633D01*
X56397441Y-48592754D01*
X56427570Y-48566905D01*
X56471865Y-48544737D01*
X56534878Y-48521498D01*
X56617036Y-48497040D01*
X56676048Y-48481631D01*
X56786578Y-48451758D01*
X56881916Y-48421365D01*
X56960207Y-48391074D01*
X56993285Y-48375708D01*
X57068124Y-48328332D01*
X57130771Y-48268464D01*
X57179775Y-48198817D01*
X57213683Y-48122105D01*
X57231044Y-48041042D01*
X57230405Y-47958343D01*
X57227348Y-47938198D01*
X57202243Y-47850730D01*
X57161046Y-47774432D01*
X57104390Y-47709723D01*
X57032911Y-47657019D01*
X56947240Y-47616742D01*
X56848013Y-47589308D01*
X56735862Y-47575137D01*
X56674865Y-47573155D01*
X56552946Y-47579598D01*
G36*
X59939413Y-47927220D02*
G01*
X59936792Y-48251807D01*
X59639536Y-47927220D01*
X59342281Y-47602632D01*
X58915450Y-47602632D01*
X59137823Y-47831944D01*
X59195462Y-47891507D01*
X59251650Y-47949806D01*
X59304075Y-48004423D01*
X59350424Y-48052943D01*
X59388385Y-48092947D01*
X59415646Y-48122020D01*
X59422571Y-48129538D01*
X59484945Y-48197820D01*
X59186522Y-48658250D01*
X58888098Y-49118679D01*
X59089330Y-49121378D01*
X59158292Y-49122145D01*
X59210036Y-49122227D01*
X59247220Y-49121450D01*
X59272502Y-49119641D01*
X59288539Y-49116629D01*
X59297990Y-49112241D01*
X59302672Y-49107516D01*
X59310234Y-49095473D01*
X59326632Y-49068198D01*
X59350709Y-49027650D01*
X59381312Y-48975787D01*
X59417284Y-48914567D01*
X59457472Y-48845949D01*
X59500721Y-48771892D01*
X59511462Y-48753466D01*
X59708142Y-48415978D01*
X59824953Y-48538566D01*
X59941763Y-48661153D01*
X59941763Y-49123650D01*
X60269825Y-49123650D01*
X60269825Y-47602632D01*
X59942034Y-47602632D01*
X59939413Y-47927220D01*
G37*
X59939413Y-47927220D02*
X59936792Y-48251807D01*
X59639536Y-47927220D01*
X59342281Y-47602632D01*
X58915450Y-47602632D01*
X59137823Y-47831944D01*
X59195462Y-47891507D01*
X59251650Y-47949806D01*
X59304075Y-48004423D01*
X59350424Y-48052943D01*
X59388385Y-48092947D01*
X59415646Y-48122020D01*
X59422571Y-48129538D01*
X59484945Y-48197820D01*
X59186522Y-48658250D01*
X58888098Y-49118679D01*
X59089330Y-49121378D01*
X59158292Y-49122145D01*
X59210036Y-49122227D01*
X59247220Y-49121450D01*
X59272502Y-49119641D01*
X59288539Y-49116629D01*
X59297990Y-49112241D01*
X59302672Y-49107516D01*
X59310234Y-49095473D01*
X59326632Y-49068198D01*
X59350709Y-49027650D01*
X59381312Y-48975787D01*
X59417284Y-48914567D01*
X59457472Y-48845949D01*
X59500721Y-48771892D01*
X59511462Y-48753466D01*
X59708142Y-48415978D01*
X59824953Y-48538566D01*
X59941763Y-48661153D01*
X59941763Y-49123650D01*
X60269825Y-49123650D01*
X60269825Y-47602632D01*
X59942034Y-47602632D01*
X59939413Y-47927220D01*
G36*
X58241730Y-47602832D02*
G01*
X58142984Y-47603548D01*
X58060109Y-47604960D01*
X57991102Y-47607246D01*
X57933958Y-47610584D01*
X57886673Y-47615151D01*
X57847243Y-47621127D01*
X57813664Y-47628689D01*
X57783931Y-47638016D01*
X57756041Y-47649286D01*
X57737818Y-47657802D01*
X57675991Y-47694372D01*
X57626664Y-47739300D01*
X57585644Y-47796967D01*
X57562642Y-47840833D01*
X57546316Y-47878283D01*
X57537072Y-47910277D01*
X57533043Y-47945684D01*
X57532326Y-47984981D01*
X57535214Y-48043459D01*
X57544546Y-48091706D01*
X57554660Y-48121584D01*
X57576538Y-48164744D01*
X57607550Y-48209776D01*
X57643025Y-48250987D01*
X57678294Y-48282687D01*
X57696324Y-48294221D01*
X57715920Y-48306369D01*
X57724654Y-48315774D01*
X57724685Y-48316175D01*
X57716212Y-48323597D01*
X57694351Y-48335646D01*
X57668914Y-48347455D01*
X57599614Y-48387594D01*
X57543199Y-48440970D01*
X57500327Y-48505142D01*
X57471655Y-48577667D01*
X57457842Y-48656104D01*
X57459547Y-48738010D01*
X57477427Y-48820943D01*
X57512141Y-48902462D01*
X57516960Y-48911142D01*
X57558237Y-48968651D01*
X57611534Y-49020932D01*
X57669771Y-49061172D01*
X57676645Y-49064812D01*
X57699707Y-49076318D01*
X57721332Y-49085979D01*
X57743469Y-49093975D01*
X57768070Y-49100489D01*
X57797084Y-49105703D01*
X57832462Y-49109799D01*
X57876154Y-49112957D01*
X57930111Y-49115361D01*
X57996282Y-49117192D01*
X58076620Y-49118632D01*
X58173073Y-49119862D01*
X58279082Y-49120979D01*
X58738867Y-49125619D01*
X58738867Y-48865176D01*
X58420745Y-48865176D01*
X58194581Y-48865121D01*
X58119995Y-48864608D01*
X58053404Y-48863186D01*
X57997691Y-48860973D01*
X57955740Y-48858088D01*
X57930437Y-48854649D01*
X57928651Y-48854203D01*
X57874361Y-48830650D01*
X57832999Y-48795324D01*
X57804636Y-48751456D01*
X57789345Y-48702282D01*
X57787197Y-48651032D01*
X57798263Y-48600940D01*
X57822617Y-48555239D01*
X57860329Y-48517162D01*
X57911472Y-48489942D01*
X57920492Y-48486938D01*
X57942663Y-48483024D01*
X57981843Y-48479255D01*
X58035157Y-48475809D01*
X58099731Y-48472864D01*
X58172690Y-48470599D01*
X58189610Y-48470209D01*
X58420745Y-48465213D01*
X58420745Y-48865176D01*
X58738867Y-48865176D01*
X58738867Y-48209051D01*
X58420745Y-48209051D01*
X58227379Y-48209051D01*
X58163470Y-48208485D01*
X58102860Y-48206912D01*
X58049723Y-48204518D01*
X58008236Y-48201491D01*
X57983034Y-48198118D01*
X57931505Y-48179102D01*
X57888098Y-48147801D01*
X57858018Y-48108189D01*
X57854090Y-48099692D01*
X57846197Y-48063633D01*
X57846117Y-48019349D01*
X57853022Y-47975241D01*
X57866087Y-47939711D01*
X57870497Y-47932768D01*
X57892329Y-47910799D01*
X57921847Y-47890026D01*
X57929293Y-47885959D01*
X57943806Y-47879441D01*
X57960311Y-47874426D01*
X57981661Y-47870668D01*
X58010709Y-47867917D01*
X58050306Y-47865927D01*
X58103304Y-47864449D01*
X58172557Y-47863236D01*
X58194581Y-47862919D01*
X58420745Y-47859762D01*
X58420745Y-48209051D01*
X58738867Y-48209051D01*
X58738867Y-47602632D01*
X58358351Y-47602632D01*
X58241730Y-47602832D01*
G37*
X58241730Y-47602832D02*
X58142984Y-47603548D01*
X58060109Y-47604960D01*
X57991102Y-47607246D01*
X57933958Y-47610584D01*
X57886673Y-47615151D01*
X57847243Y-47621127D01*
X57813664Y-47628689D01*
X57783931Y-47638016D01*
X57756041Y-47649286D01*
X57737818Y-47657802D01*
X57675991Y-47694372D01*
X57626664Y-47739300D01*
X57585644Y-47796967D01*
X57562642Y-47840833D01*
X57546316Y-47878283D01*
X57537072Y-47910277D01*
X57533043Y-47945684D01*
X57532326Y-47984981D01*
X57535214Y-48043459D01*
X57544546Y-48091706D01*
X57554660Y-48121584D01*
X57576538Y-48164744D01*
X57607550Y-48209776D01*
X57643025Y-48250987D01*
X57678294Y-48282687D01*
X57696324Y-48294221D01*
X57715920Y-48306369D01*
X57724654Y-48315774D01*
X57724685Y-48316175D01*
X57716212Y-48323597D01*
X57694351Y-48335646D01*
X57668914Y-48347455D01*
X57599614Y-48387594D01*
X57543199Y-48440970D01*
X57500327Y-48505142D01*
X57471655Y-48577667D01*
X57457842Y-48656104D01*
X57459547Y-48738010D01*
X57477427Y-48820943D01*
X57512141Y-48902462D01*
X57516960Y-48911142D01*
X57558237Y-48968651D01*
X57611534Y-49020932D01*
X57669771Y-49061172D01*
X57676645Y-49064812D01*
X57699707Y-49076318D01*
X57721332Y-49085979D01*
X57743469Y-49093975D01*
X57768070Y-49100489D01*
X57797084Y-49105703D01*
X57832462Y-49109799D01*
X57876154Y-49112957D01*
X57930111Y-49115361D01*
X57996282Y-49117192D01*
X58076620Y-49118632D01*
X58173073Y-49119862D01*
X58279082Y-49120979D01*
X58738867Y-49125619D01*
X58738867Y-48865176D01*
X58420745Y-48865176D01*
X58194581Y-48865121D01*
X58119995Y-48864608D01*
X58053404Y-48863186D01*
X57997691Y-48860973D01*
X57955740Y-48858088D01*
X57930437Y-48854649D01*
X57928651Y-48854203D01*
X57874361Y-48830650D01*
X57832999Y-48795324D01*
X57804636Y-48751456D01*
X57789345Y-48702282D01*
X57787197Y-48651032D01*
X57798263Y-48600940D01*
X57822617Y-48555239D01*
X57860329Y-48517162D01*
X57911472Y-48489942D01*
X57920492Y-48486938D01*
X57942663Y-48483024D01*
X57981843Y-48479255D01*
X58035157Y-48475809D01*
X58099731Y-48472864D01*
X58172690Y-48470599D01*
X58189610Y-48470209D01*
X58420745Y-48465213D01*
X58420745Y-48865176D01*
X58738867Y-48865176D01*
X58738867Y-48209051D01*
X58420745Y-48209051D01*
X58227379Y-48209051D01*
X58163470Y-48208485D01*
X58102860Y-48206912D01*
X58049723Y-48204518D01*
X58008236Y-48201491D01*
X57983034Y-48198118D01*
X57931505Y-48179102D01*
X57888098Y-48147801D01*
X57858018Y-48108189D01*
X57854090Y-48099692D01*
X57846197Y-48063633D01*
X57846117Y-48019349D01*
X57853022Y-47975241D01*
X57866087Y-47939711D01*
X57870497Y-47932768D01*
X57892329Y-47910799D01*
X57921847Y-47890026D01*
X57929293Y-47885959D01*
X57943806Y-47879441D01*
X57960311Y-47874426D01*
X57981661Y-47870668D01*
X58010709Y-47867917D01*
X58050306Y-47865927D01*
X58103304Y-47864449D01*
X58172557Y-47863236D01*
X58194581Y-47862919D01*
X58420745Y-47859762D01*
X58420745Y-48209051D01*
X58738867Y-48209051D01*
X58738867Y-47602632D01*
X58358351Y-47602632D01*
X58241730Y-47602832D01*
D12*
X75973000Y-48963252D02*
X75973000Y-48440748D01*
X77443000Y-48963252D02*
X77443000Y-48440748D01*
X64289000Y-46032748D02*
X64289000Y-46555252D01*
X65759000Y-46032748D02*
X65759000Y-46555252D01*
X66431000Y-48260000D02*
X66431000Y-46310000D01*
X66431000Y-48260000D02*
X66431000Y-50210000D01*
X75301000Y-48260000D02*
X75301000Y-46310000D01*
X75301000Y-48260000D02*
X75301000Y-51710000D01*
D10*
X78745142Y-48535333D02*
X78792761Y-48487714D01*
X78840380Y-48344857D01*
X78840380Y-48249619D01*
X78792761Y-48106761D01*
X78697523Y-48011523D01*
X78602285Y-47963904D01*
X78411809Y-47916285D01*
X78268952Y-47916285D01*
X78078476Y-47963904D01*
X77983238Y-48011523D01*
X77888000Y-48106761D01*
X77840380Y-48249619D01*
X77840380Y-48344857D01*
X77888000Y-48487714D01*
X77935619Y-48535333D01*
X78840380Y-49487714D02*
X78840380Y-48916285D01*
X78840380Y-49202000D02*
X77840380Y-49202000D01*
X77983238Y-49106761D01*
X78078476Y-49011523D01*
X78126095Y-48916285D01*
X63701142Y-46127333D02*
X63748761Y-46079714D01*
X63796380Y-45936857D01*
X63796380Y-45841619D01*
X63748761Y-45698761D01*
X63653523Y-45603523D01*
X63558285Y-45555904D01*
X63367809Y-45508285D01*
X63224952Y-45508285D01*
X63034476Y-45555904D01*
X62939238Y-45603523D01*
X62844000Y-45698761D01*
X62796380Y-45841619D01*
X62796380Y-45936857D01*
X62844000Y-46079714D01*
X62891619Y-46127333D01*
X62891619Y-46508285D02*
X62844000Y-46555904D01*
X62796380Y-46651142D01*
X62796380Y-46889238D01*
X62844000Y-46984476D01*
X62891619Y-47032095D01*
X62986857Y-47079714D01*
X63082095Y-47079714D01*
X63224952Y-47032095D01*
X63796380Y-46460666D01*
X63796380Y-47079714D01*
X75906380Y-50927095D02*
X76715904Y-50927095D01*
X76811142Y-50974714D01*
X76858761Y-51022333D01*
X76906380Y-51117571D01*
X76906380Y-51308047D01*
X76858761Y-51403285D01*
X76811142Y-51450904D01*
X76715904Y-51498523D01*
X75906380Y-51498523D01*
X76906380Y-52498523D02*
X76906380Y-51927095D01*
X76906380Y-52212809D02*
X75906380Y-52212809D01*
X76049238Y-52117571D01*
X76144476Y-52022333D01*
X76192095Y-51927095D01*
M02*
