%TF.GenerationSoftware,KiCad,Pcbnew,5.1.10-1.fc32*%
%TF.CreationDate,2021-08-01T16:38:55+02:00*%
%TF.ProjectId,lm324_therm_bar,6c6d3332-345f-4746-9865-726d5f626172,rev?*%
%TF.SameCoordinates,Original*%
%TF.FileFunction,Copper,L2,Bot*%
%TF.FilePolarity,Positive*%
%FSLAX46Y46*%
G04 Gerber Fmt 4.6, Leading zero omitted, Abs format (unit mm)*
G04 Created by KiCad (PCBNEW 5.1.10-1.fc32) date 2021-08-01 16:38:55*
%MOMM*%
%LPD*%
G01*
G04 APERTURE LIST*
%TA.AperFunction,NonConductor*%
%ADD10C,0.300000*%
%TD*%
%TA.AperFunction,ComponentPad*%
%ADD11C,5.600000*%
%TD*%
%TA.AperFunction,ComponentPad*%
%ADD12C,1.800000*%
%TD*%
%TA.AperFunction,ComponentPad*%
%ADD13R,1.800000X1.800000*%
%TD*%
%TA.AperFunction,ComponentPad*%
%ADD14R,1.700000X1.700000*%
%TD*%
%TA.AperFunction,ComponentPad*%
%ADD15O,1.700000X1.700000*%
%TD*%
%TA.AperFunction,ComponentPad*%
%ADD16R,1.600000X1.600000*%
%TD*%
%TA.AperFunction,ComponentPad*%
%ADD17C,1.600000*%
%TD*%
%TA.AperFunction,ViaPad*%
%ADD18C,0.900000*%
%TD*%
%TA.AperFunction,Conductor*%
%ADD19C,0.406400*%
%TD*%
G04 APERTURE END LIST*
D10*
X81613142Y-46144571D02*
X81613142Y-44644571D01*
X80756000Y-46144571D02*
X81398857Y-45287428D01*
X80756000Y-44644571D02*
X81613142Y-45501714D01*
X79613142Y-45358857D02*
X79398857Y-45430285D01*
X79327428Y-45501714D01*
X79256000Y-45644571D01*
X79256000Y-45858857D01*
X79327428Y-46001714D01*
X79398857Y-46073142D01*
X79541714Y-46144571D01*
X80113142Y-46144571D01*
X80113142Y-44644571D01*
X79613142Y-44644571D01*
X79470285Y-44716000D01*
X79398857Y-44787428D01*
X79327428Y-44930285D01*
X79327428Y-45073142D01*
X79398857Y-45216000D01*
X79470285Y-45287428D01*
X79613142Y-45358857D01*
X80113142Y-45358857D01*
X78684571Y-46073142D02*
X78470285Y-46144571D01*
X78113142Y-46144571D01*
X77970285Y-46073142D01*
X77898857Y-46001714D01*
X77827428Y-45858857D01*
X77827428Y-45716000D01*
X77898857Y-45573142D01*
X77970285Y-45501714D01*
X78113142Y-45430285D01*
X78398857Y-45358857D01*
X78541714Y-45287428D01*
X78613142Y-45216000D01*
X78684571Y-45073142D01*
X78684571Y-44930285D01*
X78613142Y-44787428D01*
X78541714Y-44716000D01*
X78398857Y-44644571D01*
X78041714Y-44644571D01*
X77827428Y-44716000D01*
D11*
X58928000Y-44196000D03*
%TA.AperFunction,SMDPad,CuDef*%
G36*
G01*
X77183000Y-48252000D02*
X76233000Y-48252000D01*
G75*
G02*
X75983000Y-48002000I0J250000D01*
G01*
X75983000Y-47502000D01*
G75*
G02*
X76233000Y-47252000I250000J0D01*
G01*
X77183000Y-47252000D01*
G75*
G02*
X77433000Y-47502000I0J-250000D01*
G01*
X77433000Y-48002000D01*
G75*
G02*
X77183000Y-48252000I-250000J0D01*
G01*
G37*
%TD.AperFunction*%
%TA.AperFunction,SMDPad,CuDef*%
G36*
G01*
X77183000Y-50152000D02*
X76233000Y-50152000D01*
G75*
G02*
X75983000Y-49902000I0J250000D01*
G01*
X75983000Y-49402000D01*
G75*
G02*
X76233000Y-49152000I250000J0D01*
G01*
X77183000Y-49152000D01*
G75*
G02*
X77433000Y-49402000I0J-250000D01*
G01*
X77433000Y-49902000D01*
G75*
G02*
X77183000Y-50152000I-250000J0D01*
G01*
G37*
%TD.AperFunction*%
%TA.AperFunction,SMDPad,CuDef*%
G36*
G01*
X64549000Y-44844000D02*
X65499000Y-44844000D01*
G75*
G02*
X65749000Y-45094000I0J-250000D01*
G01*
X65749000Y-45594000D01*
G75*
G02*
X65499000Y-45844000I-250000J0D01*
G01*
X64549000Y-45844000D01*
G75*
G02*
X64299000Y-45594000I0J250000D01*
G01*
X64299000Y-45094000D01*
G75*
G02*
X64549000Y-44844000I250000J0D01*
G01*
G37*
%TD.AperFunction*%
%TA.AperFunction,SMDPad,CuDef*%
G36*
G01*
X64549000Y-46744000D02*
X65499000Y-46744000D01*
G75*
G02*
X65749000Y-46994000I0J-250000D01*
G01*
X65749000Y-47494000D01*
G75*
G02*
X65499000Y-47744000I-250000J0D01*
G01*
X64549000Y-47744000D01*
G75*
G02*
X64299000Y-47494000I0J250000D01*
G01*
X64299000Y-46994000D01*
G75*
G02*
X64549000Y-46744000I250000J0D01*
G01*
G37*
%TD.AperFunction*%
D12*
X62230000Y-54102000D03*
D13*
X59690000Y-54102000D03*
X67564000Y-54102000D03*
D12*
X70104000Y-54102000D03*
D13*
X75438000Y-54102000D03*
D12*
X77978000Y-54102000D03*
X85852000Y-54102000D03*
D13*
X83312000Y-54102000D03*
D14*
X72009000Y-42672000D03*
D15*
X69469000Y-42672000D03*
%TA.AperFunction,SMDPad,CuDef*%
G36*
G01*
X74826000Y-51710000D02*
X74526000Y-51710000D01*
G75*
G02*
X74376000Y-51560000I0J150000D01*
G01*
X74376000Y-49910000D01*
G75*
G02*
X74526000Y-49760000I150000J0D01*
G01*
X74826000Y-49760000D01*
G75*
G02*
X74976000Y-49910000I0J-150000D01*
G01*
X74976000Y-51560000D01*
G75*
G02*
X74826000Y-51710000I-150000J0D01*
G01*
G37*
%TD.AperFunction*%
%TA.AperFunction,SMDPad,CuDef*%
G36*
G01*
X73556000Y-51710000D02*
X73256000Y-51710000D01*
G75*
G02*
X73106000Y-51560000I0J150000D01*
G01*
X73106000Y-49910000D01*
G75*
G02*
X73256000Y-49760000I150000J0D01*
G01*
X73556000Y-49760000D01*
G75*
G02*
X73706000Y-49910000I0J-150000D01*
G01*
X73706000Y-51560000D01*
G75*
G02*
X73556000Y-51710000I-150000J0D01*
G01*
G37*
%TD.AperFunction*%
%TA.AperFunction,SMDPad,CuDef*%
G36*
G01*
X72286000Y-51710000D02*
X71986000Y-51710000D01*
G75*
G02*
X71836000Y-51560000I0J150000D01*
G01*
X71836000Y-49910000D01*
G75*
G02*
X71986000Y-49760000I150000J0D01*
G01*
X72286000Y-49760000D01*
G75*
G02*
X72436000Y-49910000I0J-150000D01*
G01*
X72436000Y-51560000D01*
G75*
G02*
X72286000Y-51710000I-150000J0D01*
G01*
G37*
%TD.AperFunction*%
%TA.AperFunction,SMDPad,CuDef*%
G36*
G01*
X71016000Y-51710000D02*
X70716000Y-51710000D01*
G75*
G02*
X70566000Y-51560000I0J150000D01*
G01*
X70566000Y-49910000D01*
G75*
G02*
X70716000Y-49760000I150000J0D01*
G01*
X71016000Y-49760000D01*
G75*
G02*
X71166000Y-49910000I0J-150000D01*
G01*
X71166000Y-51560000D01*
G75*
G02*
X71016000Y-51710000I-150000J0D01*
G01*
G37*
%TD.AperFunction*%
%TA.AperFunction,SMDPad,CuDef*%
G36*
G01*
X69746000Y-51710000D02*
X69446000Y-51710000D01*
G75*
G02*
X69296000Y-51560000I0J150000D01*
G01*
X69296000Y-49910000D01*
G75*
G02*
X69446000Y-49760000I150000J0D01*
G01*
X69746000Y-49760000D01*
G75*
G02*
X69896000Y-49910000I0J-150000D01*
G01*
X69896000Y-51560000D01*
G75*
G02*
X69746000Y-51710000I-150000J0D01*
G01*
G37*
%TD.AperFunction*%
%TA.AperFunction,SMDPad,CuDef*%
G36*
G01*
X68476000Y-51710000D02*
X68176000Y-51710000D01*
G75*
G02*
X68026000Y-51560000I0J150000D01*
G01*
X68026000Y-49910000D01*
G75*
G02*
X68176000Y-49760000I150000J0D01*
G01*
X68476000Y-49760000D01*
G75*
G02*
X68626000Y-49910000I0J-150000D01*
G01*
X68626000Y-51560000D01*
G75*
G02*
X68476000Y-51710000I-150000J0D01*
G01*
G37*
%TD.AperFunction*%
%TA.AperFunction,SMDPad,CuDef*%
G36*
G01*
X67206000Y-51710000D02*
X66906000Y-51710000D01*
G75*
G02*
X66756000Y-51560000I0J150000D01*
G01*
X66756000Y-49910000D01*
G75*
G02*
X66906000Y-49760000I150000J0D01*
G01*
X67206000Y-49760000D01*
G75*
G02*
X67356000Y-49910000I0J-150000D01*
G01*
X67356000Y-51560000D01*
G75*
G02*
X67206000Y-51710000I-150000J0D01*
G01*
G37*
%TD.AperFunction*%
%TA.AperFunction,SMDPad,CuDef*%
G36*
G01*
X67206000Y-46760000D02*
X66906000Y-46760000D01*
G75*
G02*
X66756000Y-46610000I0J150000D01*
G01*
X66756000Y-44960000D01*
G75*
G02*
X66906000Y-44810000I150000J0D01*
G01*
X67206000Y-44810000D01*
G75*
G02*
X67356000Y-44960000I0J-150000D01*
G01*
X67356000Y-46610000D01*
G75*
G02*
X67206000Y-46760000I-150000J0D01*
G01*
G37*
%TD.AperFunction*%
%TA.AperFunction,SMDPad,CuDef*%
G36*
G01*
X68476000Y-46760000D02*
X68176000Y-46760000D01*
G75*
G02*
X68026000Y-46610000I0J150000D01*
G01*
X68026000Y-44960000D01*
G75*
G02*
X68176000Y-44810000I150000J0D01*
G01*
X68476000Y-44810000D01*
G75*
G02*
X68626000Y-44960000I0J-150000D01*
G01*
X68626000Y-46610000D01*
G75*
G02*
X68476000Y-46760000I-150000J0D01*
G01*
G37*
%TD.AperFunction*%
%TA.AperFunction,SMDPad,CuDef*%
G36*
G01*
X69746000Y-46760000D02*
X69446000Y-46760000D01*
G75*
G02*
X69296000Y-46610000I0J150000D01*
G01*
X69296000Y-44960000D01*
G75*
G02*
X69446000Y-44810000I150000J0D01*
G01*
X69746000Y-44810000D01*
G75*
G02*
X69896000Y-44960000I0J-150000D01*
G01*
X69896000Y-46610000D01*
G75*
G02*
X69746000Y-46760000I-150000J0D01*
G01*
G37*
%TD.AperFunction*%
%TA.AperFunction,SMDPad,CuDef*%
G36*
G01*
X71016000Y-46760000D02*
X70716000Y-46760000D01*
G75*
G02*
X70566000Y-46610000I0J150000D01*
G01*
X70566000Y-44960000D01*
G75*
G02*
X70716000Y-44810000I150000J0D01*
G01*
X71016000Y-44810000D01*
G75*
G02*
X71166000Y-44960000I0J-150000D01*
G01*
X71166000Y-46610000D01*
G75*
G02*
X71016000Y-46760000I-150000J0D01*
G01*
G37*
%TD.AperFunction*%
%TA.AperFunction,SMDPad,CuDef*%
G36*
G01*
X72286000Y-46760000D02*
X71986000Y-46760000D01*
G75*
G02*
X71836000Y-46610000I0J150000D01*
G01*
X71836000Y-44960000D01*
G75*
G02*
X71986000Y-44810000I150000J0D01*
G01*
X72286000Y-44810000D01*
G75*
G02*
X72436000Y-44960000I0J-150000D01*
G01*
X72436000Y-46610000D01*
G75*
G02*
X72286000Y-46760000I-150000J0D01*
G01*
G37*
%TD.AperFunction*%
%TA.AperFunction,SMDPad,CuDef*%
G36*
G01*
X73556000Y-46760000D02*
X73256000Y-46760000D01*
G75*
G02*
X73106000Y-46610000I0J150000D01*
G01*
X73106000Y-44960000D01*
G75*
G02*
X73256000Y-44810000I150000J0D01*
G01*
X73556000Y-44810000D01*
G75*
G02*
X73706000Y-44960000I0J-150000D01*
G01*
X73706000Y-46610000D01*
G75*
G02*
X73556000Y-46760000I-150000J0D01*
G01*
G37*
%TD.AperFunction*%
%TA.AperFunction,SMDPad,CuDef*%
G36*
G01*
X74826000Y-46760000D02*
X74526000Y-46760000D01*
G75*
G02*
X74376000Y-46610000I0J150000D01*
G01*
X74376000Y-44960000D01*
G75*
G02*
X74526000Y-44810000I150000J0D01*
G01*
X74826000Y-44810000D01*
G75*
G02*
X74976000Y-44960000I0J-150000D01*
G01*
X74976000Y-46610000D01*
G75*
G02*
X74826000Y-46760000I-150000J0D01*
G01*
G37*
%TD.AperFunction*%
D16*
X83566000Y-42926000D03*
D17*
X83566000Y-46126000D03*
D14*
X75692000Y-42672000D03*
D15*
X78232000Y-42672000D03*
D18*
X86360000Y-49784000D03*
X59817000Y-50673000D03*
X65151000Y-50292000D03*
X70612000Y-48895000D03*
X74041000Y-47625000D03*
X67818000Y-44323000D03*
X68326000Y-47472600D03*
X74168000Y-52451000D03*
X78232000Y-50546000D03*
X79375000Y-46990000D03*
X57150000Y-49911000D03*
D19*
X70866000Y-45785000D02*
X70866000Y-44323000D01*
X69469000Y-42926000D02*
X69469000Y-42672000D01*
X70866000Y-44323000D02*
X69469000Y-42926000D01*
X76708000Y-47752000D02*
X76708000Y-44450000D01*
X78232000Y-42926000D02*
X78232000Y-42672000D01*
X76708000Y-44450000D02*
X78232000Y-42926000D01*
X69469000Y-42672000D02*
X65659000Y-42672000D01*
X65024000Y-43307000D02*
X65024000Y-45344000D01*
X65659000Y-42672000D02*
X65024000Y-43307000D01*
X75692000Y-42672000D02*
X75692000Y-46863000D01*
X70866000Y-50735000D02*
X70866000Y-50038000D01*
X70866000Y-50038000D02*
X71628000Y-49276000D01*
X71628000Y-49276000D02*
X72644000Y-49276000D01*
X75692000Y-46863000D02*
X74993500Y-47561500D01*
X76708000Y-49652000D02*
X76068000Y-49652000D01*
X74993500Y-48577500D02*
X74993500Y-47561500D01*
X76068000Y-49652000D02*
X74993500Y-48577500D01*
X73342500Y-48577500D02*
X73152000Y-48768000D01*
X74993500Y-48577500D02*
X73342500Y-48577500D01*
X72644000Y-49276000D02*
X73152000Y-48768000D01*
X76708000Y-49652000D02*
X76708000Y-51054000D01*
X76708000Y-51054000D02*
X77470000Y-51816000D01*
X77470000Y-51816000D02*
X85725000Y-51816000D01*
X86360000Y-51181000D02*
X86360000Y-49784000D01*
X85725000Y-51816000D02*
X86360000Y-51181000D01*
X69596000Y-50735000D02*
X69596000Y-51435000D01*
X69596000Y-51435000D02*
X70485000Y-52324000D01*
X70485000Y-52324000D02*
X71501000Y-52324000D01*
X72136000Y-51689000D02*
X72136000Y-50735000D01*
X71501000Y-52324000D02*
X72136000Y-51689000D01*
X72136000Y-42799000D02*
X72009000Y-42672000D01*
X72136000Y-45785000D02*
X72136000Y-42799000D01*
X72136000Y-45785000D02*
X72136000Y-47117000D01*
X71374000Y-47879000D02*
X69596000Y-47879000D01*
X72136000Y-47117000D02*
X71374000Y-47879000D01*
X69596000Y-47879000D02*
X69596000Y-45785000D01*
X69596000Y-50735000D02*
X69596000Y-47879000D01*
X69596000Y-44831000D02*
X69596000Y-45785000D01*
X66929000Y-43434000D02*
X68199000Y-43434000D01*
X66294000Y-44069000D02*
X66929000Y-43434000D01*
X66294000Y-46101000D02*
X66294000Y-44069000D01*
X65151000Y-47244000D02*
X66294000Y-46101000D01*
X68199000Y-43434000D02*
X69596000Y-44831000D01*
X65024000Y-47244000D02*
X65151000Y-47244000D01*
X65024000Y-47244000D02*
X65024000Y-47625000D01*
X61976000Y-50673000D02*
X59817000Y-50673000D01*
X65024000Y-47625000D02*
X61976000Y-50673000D01*
X67056000Y-48387000D02*
X67056000Y-45785000D01*
X65151000Y-50292000D02*
X67056000Y-48387000D01*
X67056000Y-50735000D02*
X67056000Y-51689000D01*
X67056000Y-51689000D02*
X67818000Y-52451000D01*
X67818000Y-52451000D02*
X69469000Y-52451000D01*
X70104000Y-53086000D02*
X70104000Y-54102000D01*
X69469000Y-52451000D02*
X70104000Y-53086000D01*
X77978000Y-54102000D02*
X77978000Y-53721000D01*
X74992000Y-50735000D02*
X74676000Y-50735000D01*
X77978000Y-53721000D02*
X74992000Y-50735000D01*
X70612000Y-48895000D02*
X70866000Y-48641000D01*
X70866000Y-48641000D02*
X71755000Y-48641000D01*
X73406000Y-46990000D02*
X73406000Y-45785000D01*
X74041000Y-47625000D02*
X72771000Y-47625000D01*
X72771000Y-47625000D02*
X73406000Y-46990000D01*
X71755000Y-48641000D02*
X72771000Y-47625000D01*
X68326000Y-44831000D02*
X67818000Y-44323000D01*
X68326000Y-45785000D02*
X68326000Y-44831000D01*
X68326000Y-47396400D02*
X68326000Y-50735000D01*
X68449000Y-47273400D02*
X68326000Y-47396400D01*
X73406000Y-51689000D02*
X74168000Y-52451000D01*
X73406000Y-50735000D02*
X73406000Y-51689000D01*
X79375000Y-49403000D02*
X79375000Y-46990000D01*
X78232000Y-50546000D02*
X79375000Y-49403000D01*
X64770000Y-41275000D02*
X63373000Y-42672000D01*
X73152000Y-41275000D02*
X64770000Y-41275000D01*
X73914000Y-42037000D02*
X73152000Y-41275000D01*
X73914000Y-43688000D02*
X73914000Y-42037000D01*
X74676000Y-44450000D02*
X73914000Y-43688000D01*
X63373000Y-42672000D02*
X63373000Y-44704000D01*
X74676000Y-45785000D02*
X74676000Y-44450000D01*
X63373000Y-44704000D02*
X60579000Y-47498000D01*
X60579000Y-47498000D02*
X58166000Y-47498000D01*
X57150000Y-48514000D02*
X57150000Y-49911000D01*
X58166000Y-47498000D02*
X57150000Y-48514000D01*
M02*
