M48
; DRILL file {KiCad 5.1.10-1.fc32} date Sun Aug  1 16:41:04 2021
; FORMAT={-:-/ absolute / metric / decimal}
; #@! TF.CreationDate,2021-08-01T16:41:04+02:00
; #@! TF.GenerationSoftware,Kicad,Pcbnew,5.1.10-1.fc32
FMAT,2
METRIC
T1C0.400
T2C0.900
T3C1.000
T4C3.200
%
G90
G05
T1
X57.15Y-49.911
X59.817Y-50.673
X65.151Y-50.292
X67.818Y-44.323
X68.326Y-47.473
X70.612Y-48.895
X74.041Y-47.625
X74.168Y-52.451
X78.232Y-50.546
X79.375Y-46.99
X86.36Y-49.784
T2
X59.69Y-54.102
X62.23Y-54.102
X67.564Y-54.102
X70.104Y-54.102
X75.438Y-54.102
X77.978Y-54.102
X83.312Y-54.102
X85.852Y-54.102
T3
X69.469Y-42.672
X72.009Y-42.672
X75.692Y-42.672
X78.232Y-42.672
X83.566Y-42.926
X83.566Y-46.126
T4
X58.928Y-44.196
T0
M30
