%TF.GenerationSoftware,KiCad,Pcbnew,5.1.10-1.fc32*%
%TF.CreationDate,2021-08-01T16:38:55+02:00*%
%TF.ProjectId,lm324_therm_bar,6c6d3332-345f-4746-9865-726d5f626172,rev?*%
%TF.SameCoordinates,Original*%
%TF.FileFunction,Soldermask,Top*%
%TF.FilePolarity,Negative*%
%FSLAX46Y46*%
G04 Gerber Fmt 4.6, Leading zero omitted, Abs format (unit mm)*
G04 Created by KiCad (PCBNEW 5.1.10-1.fc32) date 2021-08-01 16:38:55*
%MOMM*%
%LPD*%
G01*
G04 APERTURE LIST*
%ADD10C,0.900000*%
%ADD11C,5.600000*%
%ADD12C,1.800000*%
%ADD13R,1.800000X1.800000*%
%ADD14R,1.700000X1.700000*%
%ADD15O,1.700000X1.700000*%
%ADD16R,0.800000X0.900000*%
%ADD17R,1.600000X1.600000*%
%ADD18C,1.600000*%
G04 APERTURE END LIST*
D10*
X59817000Y-50673000D02*
G75*
G03*
X59817000Y-50673000I0J0D01*
G01*
X57150000Y-49911000D02*
G75*
G03*
X57150000Y-49911000I0J0D01*
G01*
X65151000Y-50292000D02*
G75*
G03*
X65151000Y-50292000I0J0D01*
G01*
X67818000Y-44323000D02*
G75*
G03*
X67818000Y-44323000I0J0D01*
G01*
X68326000Y-47498000D02*
G75*
G03*
X68326000Y-47498000I0J0D01*
G01*
X70612000Y-48895000D02*
G75*
G03*
X70612000Y-48895000I0J0D01*
G01*
X74168000Y-52451000D02*
G75*
G03*
X74168000Y-52451000I0J0D01*
G01*
X74041000Y-47625000D02*
G75*
G03*
X74041000Y-47625000I0J0D01*
G01*
X78232000Y-50546000D02*
G75*
G03*
X78232000Y-50546000I0J0D01*
G01*
X79375000Y-46990000D02*
G75*
G03*
X79375000Y-46990000I0J0D01*
G01*
X86360000Y-49784000D02*
G75*
G03*
X86360000Y-49784000I0J0D01*
G01*
D11*
X58928000Y-44196000D03*
D12*
X62230000Y-54102000D03*
D13*
X59690000Y-54102000D03*
X67564000Y-54102000D03*
D12*
X70104000Y-54102000D03*
D13*
X75438000Y-54102000D03*
D12*
X77978000Y-54102000D03*
X85852000Y-54102000D03*
D13*
X83312000Y-54102000D03*
D14*
X72009000Y-42672000D03*
D15*
X69469000Y-42672000D03*
D16*
X83886000Y-51038000D03*
X85786000Y-51038000D03*
X84836000Y-49038000D03*
G36*
G01*
X66112500Y-49647001D02*
X66112500Y-48396999D01*
G75*
G02*
X66362499Y-48147000I249999J0D01*
G01*
X66987501Y-48147000D01*
G75*
G02*
X67237500Y-48396999I0J-249999D01*
G01*
X67237500Y-49647001D01*
G75*
G02*
X66987501Y-49897000I-249999J0D01*
G01*
X66362499Y-49897000D01*
G75*
G02*
X66112500Y-49647001I0J249999D01*
G01*
G37*
G36*
G01*
X63187500Y-49647001D02*
X63187500Y-48396999D01*
G75*
G02*
X63437499Y-48147000I249999J0D01*
G01*
X64062501Y-48147000D01*
G75*
G02*
X64312500Y-48396999I0J-249999D01*
G01*
X64312500Y-49647001D01*
G75*
G02*
X64062501Y-49897000I-249999J0D01*
G01*
X63437499Y-49897000D01*
G75*
G02*
X63187500Y-49647001I0J249999D01*
G01*
G37*
G36*
G01*
X67886500Y-49647001D02*
X67886500Y-48396999D01*
G75*
G02*
X68136499Y-48147000I249999J0D01*
G01*
X68761501Y-48147000D01*
G75*
G02*
X69011500Y-48396999I0J-249999D01*
G01*
X69011500Y-49647001D01*
G75*
G02*
X68761501Y-49897000I-249999J0D01*
G01*
X68136499Y-49897000D01*
G75*
G02*
X67886500Y-49647001I0J249999D01*
G01*
G37*
G36*
G01*
X70811500Y-49647001D02*
X70811500Y-48396999D01*
G75*
G02*
X71061499Y-48147000I249999J0D01*
G01*
X71686501Y-48147000D01*
G75*
G02*
X71936500Y-48396999I0J-249999D01*
G01*
X71936500Y-49647001D01*
G75*
G02*
X71686501Y-49897000I-249999J0D01*
G01*
X71061499Y-49897000D01*
G75*
G02*
X70811500Y-49647001I0J249999D01*
G01*
G37*
G36*
G01*
X73714500Y-48396999D02*
X73714500Y-49647001D01*
G75*
G02*
X73464501Y-49897000I-249999J0D01*
G01*
X72839499Y-49897000D01*
G75*
G02*
X72589500Y-49647001I0J249999D01*
G01*
X72589500Y-48396999D01*
G75*
G02*
X72839499Y-48147000I249999J0D01*
G01*
X73464501Y-48147000D01*
G75*
G02*
X73714500Y-48396999I0J-249999D01*
G01*
G37*
G36*
G01*
X76639500Y-48396999D02*
X76639500Y-49647001D01*
G75*
G02*
X76389501Y-49897000I-249999J0D01*
G01*
X75764499Y-49897000D01*
G75*
G02*
X75514500Y-49647001I0J249999D01*
G01*
X75514500Y-48396999D01*
G75*
G02*
X75764499Y-48147000I249999J0D01*
G01*
X76389501Y-48147000D01*
G75*
G02*
X76639500Y-48396999I0J-249999D01*
G01*
G37*
G36*
G01*
X63187500Y-46853001D02*
X63187500Y-45602999D01*
G75*
G02*
X63437499Y-45353000I249999J0D01*
G01*
X64062501Y-45353000D01*
G75*
G02*
X64312500Y-45602999I0J-249999D01*
G01*
X64312500Y-46853001D01*
G75*
G02*
X64062501Y-47103000I-249999J0D01*
G01*
X63437499Y-47103000D01*
G75*
G02*
X63187500Y-46853001I0J249999D01*
G01*
G37*
G36*
G01*
X66112500Y-46853001D02*
X66112500Y-45602999D01*
G75*
G02*
X66362499Y-45353000I249999J0D01*
G01*
X66987501Y-45353000D01*
G75*
G02*
X67237500Y-45602999I0J-249999D01*
G01*
X67237500Y-46853001D01*
G75*
G02*
X66987501Y-47103000I-249999J0D01*
G01*
X66362499Y-47103000D01*
G75*
G02*
X66112500Y-46853001I0J249999D01*
G01*
G37*
G36*
G01*
X62538500Y-48396999D02*
X62538500Y-49647001D01*
G75*
G02*
X62288501Y-49897000I-249999J0D01*
G01*
X61663499Y-49897000D01*
G75*
G02*
X61413500Y-49647001I0J249999D01*
G01*
X61413500Y-48396999D01*
G75*
G02*
X61663499Y-48147000I249999J0D01*
G01*
X62288501Y-48147000D01*
G75*
G02*
X62538500Y-48396999I0J-249999D01*
G01*
G37*
G36*
G01*
X59613500Y-48396999D02*
X59613500Y-49647001D01*
G75*
G02*
X59363501Y-49897000I-249999J0D01*
G01*
X58738499Y-49897000D01*
G75*
G02*
X58488500Y-49647001I0J249999D01*
G01*
X58488500Y-48396999D01*
G75*
G02*
X58738499Y-48147000I249999J0D01*
G01*
X59363501Y-48147000D01*
G75*
G02*
X59613500Y-48396999I0J-249999D01*
G01*
G37*
G36*
G01*
X70811500Y-46853001D02*
X70811500Y-45602999D01*
G75*
G02*
X71061499Y-45353000I249999J0D01*
G01*
X71686501Y-45353000D01*
G75*
G02*
X71936500Y-45602999I0J-249999D01*
G01*
X71936500Y-46853001D01*
G75*
G02*
X71686501Y-47103000I-249999J0D01*
G01*
X71061499Y-47103000D01*
G75*
G02*
X70811500Y-46853001I0J249999D01*
G01*
G37*
G36*
G01*
X67886500Y-46853001D02*
X67886500Y-45602999D01*
G75*
G02*
X68136499Y-45353000I249999J0D01*
G01*
X68761501Y-45353000D01*
G75*
G02*
X69011500Y-45602999I0J-249999D01*
G01*
X69011500Y-46853001D01*
G75*
G02*
X68761501Y-47103000I-249999J0D01*
G01*
X68136499Y-47103000D01*
G75*
G02*
X67886500Y-46853001I0J249999D01*
G01*
G37*
G36*
G01*
X78536500Y-48142999D02*
X78536500Y-49393001D01*
G75*
G02*
X78286501Y-49643000I-249999J0D01*
G01*
X77661499Y-49643000D01*
G75*
G02*
X77411500Y-49393001I0J249999D01*
G01*
X77411500Y-48142999D01*
G75*
G02*
X77661499Y-47893000I249999J0D01*
G01*
X78286501Y-47893000D01*
G75*
G02*
X78536500Y-48142999I0J-249999D01*
G01*
G37*
G36*
G01*
X81461500Y-48142999D02*
X81461500Y-49393001D01*
G75*
G02*
X81211501Y-49643000I-249999J0D01*
G01*
X80586499Y-49643000D01*
G75*
G02*
X80336500Y-49393001I0J249999D01*
G01*
X80336500Y-48142999D01*
G75*
G02*
X80586499Y-47893000I249999J0D01*
G01*
X81211501Y-47893000D01*
G75*
G02*
X81461500Y-48142999I0J-249999D01*
G01*
G37*
G36*
G01*
X72589500Y-46853001D02*
X72589500Y-45602999D01*
G75*
G02*
X72839499Y-45353000I249999J0D01*
G01*
X73464501Y-45353000D01*
G75*
G02*
X73714500Y-45602999I0J-249999D01*
G01*
X73714500Y-46853001D01*
G75*
G02*
X73464501Y-47103000I-249999J0D01*
G01*
X72839499Y-47103000D01*
G75*
G02*
X72589500Y-46853001I0J249999D01*
G01*
G37*
G36*
G01*
X75514500Y-46853001D02*
X75514500Y-45602999D01*
G75*
G02*
X75764499Y-45353000I249999J0D01*
G01*
X76389501Y-45353000D01*
G75*
G02*
X76639500Y-45602999I0J-249999D01*
G01*
X76639500Y-46853001D01*
G75*
G02*
X76389501Y-47103000I-249999J0D01*
G01*
X75764499Y-47103000D01*
G75*
G02*
X75514500Y-46853001I0J249999D01*
G01*
G37*
D17*
X83566000Y-42926000D03*
D18*
X83566000Y-46126000D03*
G36*
G01*
X57775001Y-54664500D02*
X56524999Y-54664500D01*
G75*
G02*
X56275000Y-54414501I0J249999D01*
G01*
X56275000Y-53789499D01*
G75*
G02*
X56524999Y-53539500I249999J0D01*
G01*
X57775001Y-53539500D01*
G75*
G02*
X58025000Y-53789499I0J-249999D01*
G01*
X58025000Y-54414501D01*
G75*
G02*
X57775001Y-54664500I-249999J0D01*
G01*
G37*
G36*
G01*
X57775001Y-51739500D02*
X56524999Y-51739500D01*
G75*
G02*
X56275000Y-51489501I0J249999D01*
G01*
X56275000Y-50864499D01*
G75*
G02*
X56524999Y-50614500I249999J0D01*
G01*
X57775001Y-50614500D01*
G75*
G02*
X58025000Y-50864499I0J-249999D01*
G01*
X58025000Y-51489501D01*
G75*
G02*
X57775001Y-51739500I-249999J0D01*
G01*
G37*
G36*
G01*
X65649001Y-51739500D02*
X64398999Y-51739500D01*
G75*
G02*
X64149000Y-51489501I0J249999D01*
G01*
X64149000Y-50864499D01*
G75*
G02*
X64398999Y-50614500I249999J0D01*
G01*
X65649001Y-50614500D01*
G75*
G02*
X65899000Y-50864499I0J-249999D01*
G01*
X65899000Y-51489501D01*
G75*
G02*
X65649001Y-51739500I-249999J0D01*
G01*
G37*
G36*
G01*
X65649001Y-54664500D02*
X64398999Y-54664500D01*
G75*
G02*
X64149000Y-54414501I0J249999D01*
G01*
X64149000Y-53789499D01*
G75*
G02*
X64398999Y-53539500I249999J0D01*
G01*
X65649001Y-53539500D01*
G75*
G02*
X65899000Y-53789499I0J-249999D01*
G01*
X65899000Y-54414501D01*
G75*
G02*
X65649001Y-54664500I-249999J0D01*
G01*
G37*
G36*
G01*
X73523001Y-54664500D02*
X72272999Y-54664500D01*
G75*
G02*
X72023000Y-54414501I0J249999D01*
G01*
X72023000Y-53789499D01*
G75*
G02*
X72272999Y-53539500I249999J0D01*
G01*
X73523001Y-53539500D01*
G75*
G02*
X73773000Y-53789499I0J-249999D01*
G01*
X73773000Y-54414501D01*
G75*
G02*
X73523001Y-54664500I-249999J0D01*
G01*
G37*
G36*
G01*
X73523001Y-51739500D02*
X72272999Y-51739500D01*
G75*
G02*
X72023000Y-51489501I0J249999D01*
G01*
X72023000Y-50864499D01*
G75*
G02*
X72272999Y-50614500I249999J0D01*
G01*
X73523001Y-50614500D01*
G75*
G02*
X73773000Y-50864499I0J-249999D01*
G01*
X73773000Y-51489501D01*
G75*
G02*
X73523001Y-51739500I-249999J0D01*
G01*
G37*
G36*
G01*
X81397001Y-51739500D02*
X80146999Y-51739500D01*
G75*
G02*
X79897000Y-51489501I0J249999D01*
G01*
X79897000Y-50864499D01*
G75*
G02*
X80146999Y-50614500I249999J0D01*
G01*
X81397001Y-50614500D01*
G75*
G02*
X81647000Y-50864499I0J-249999D01*
G01*
X81647000Y-51489501D01*
G75*
G02*
X81397001Y-51739500I-249999J0D01*
G01*
G37*
G36*
G01*
X81397001Y-54664500D02*
X80146999Y-54664500D01*
G75*
G02*
X79897000Y-54414501I0J249999D01*
G01*
X79897000Y-53789499D01*
G75*
G02*
X80146999Y-53539500I249999J0D01*
G01*
X81397001Y-53539500D01*
G75*
G02*
X81647000Y-53789499I0J-249999D01*
G01*
X81647000Y-54414501D01*
G75*
G02*
X81397001Y-54664500I-249999J0D01*
G01*
G37*
D14*
X75692000Y-42672000D03*
D15*
X78232000Y-42672000D03*
M02*
